<?xml version="1.0" encoding="iso-8859-1"?>
<!-- Generator: Adobe Illustrator 19.1.0, SVG Export Plug-In . SVG Version: 6.00 Build 0)  -->
<svg version="1.1" id="Capa_1" xmlns="http://www.w3.org/2000/svg" xmlns:xlink="http://www.w3.org/1999/xlink" x="0px" y="0px"
	 viewBox="0 0 65.07 65.07" style="enable-background:new 0 0 65.07 65.07;" xml:space="preserve">
<g>
	<g>
		<path d="M42.535,59.07h4v-12h-4v-2.748l7.139-13.258L32.535,0L15.396,31.064l7.139,13.258v2.748h-4v12h4v6h20V59.07z
			 M32.535,26.945c1.654,0,3,1.346,3,3s-1.346,3-3,3s-3-1.346-3-3S30.881,26.945,32.535,26.945z M17.674,31.076L31.535,5.953v19.094
			c-2.279,0.464-4,2.484-4,4.898c0,2.757,2.243,5,5,5s5-2.243,5-5c0-2.414-1.721-4.435-4-4.898V5.953l13.861,25.123l-6.861,12.742
			v3.252h-16v-3.252L17.674,31.076z M20.535,57.07v-8h24v8h-2h-20H20.535z M40.535,63.07h-16v-4h16V63.07z"/>
	</g>
</g>
<g>
</g>
<g>
</g>
<g>
</g>
<g>
</g>
<g>
</g>
<g>
</g>
<g>
</g>
<g>
</g>
<g>
</g>
<g>
</g>
<g>
</g>
<g>
</g>
<g>
</g>
<g>
</g>
<g>
</g>
</svg>
