<?xml version="1.0" encoding="iso-8859-1"?>
<!-- Generator: Adobe Illustrator 19.1.0, SVG Export Plug-In . SVG Version: 6.00 Build 0)  -->
<svg version="1.1" id="Capa_1" xmlns="http://www.w3.org/2000/svg" xmlns:xlink="http://www.w3.org/1999/xlink" x="0px" y="0px"
	 viewBox="0 0 65.202 65.202" style="enable-background:new 0 0 65.202 65.202;" xml:space="preserve">
<g>
	<g>
		<path d="M32.601,6.017L0,20.145l15.6,6.239L0,33.145l15.6,6.239L0,46.145l32.601,13.04l32.601-13.04l-15.601-6.76l15.601-6.24
			l-15.601-6.76l15.601-6.24L32.601,6.017z M60,46.07L32.601,57.03L5.202,46.07l13.015-5.64l14.384,5.754l14.384-5.753L60,46.07z
			 M60,33.07l-12.984,5.194l-0.018-0.008l-0.008,0.018L32.601,44.03l-14.39-5.756l-0.008-0.019l-0.019,0.008L5.202,33.07
			l13.015-5.64l14.384,5.754l14.384-5.753L60,33.07z M46.998,25.257l-0.008,0.018l-14.389,5.756l-14.39-5.756l-0.008-0.019
			l-0.019,0.008L5.202,20.07L32.601,8.197L60,20.071l-12.984,5.194L46.998,25.257z"/>
	</g>
</g>
<g>
</g>
<g>
</g>
<g>
</g>
<g>
</g>
<g>
</g>
<g>
</g>
<g>
</g>
<g>
</g>
<g>
</g>
<g>
</g>
<g>
</g>
<g>
</g>
<g>
</g>
<g>
</g>
<g>
</g>
</svg>
