<?xml version="1.0" encoding="iso-8859-1"?>
<!-- Generator: Adobe Illustrator 19.1.0, SVG Export Plug-In . SVG Version: 6.00 Build 0)  -->
<svg version="1.1" id="Capa_1" xmlns="http://www.w3.org/2000/svg" xmlns:xlink="http://www.w3.org/1999/xlink" x="0px" y="0px"
	 viewBox="0 0 64 64" style="enable-background:new 0 0 64 64;" xml:space="preserve">
<g>
	<g>
		<rect x="22" y="26.854" width="42" height="2"/>
		<rect x="22" y="36.854" width="34" height="2"/>
		<rect x="22" y="46.854" width="42" height="2"/>
		<rect x="22" y="56.854" width="36" height="2"/>
		<polygon points="60,6.853 57,6.853 57,8.854 58,8.854 58,9.854 60,9.854 		"/>
		<rect x="45" y="6.853" width="4" height="2"/>
		<rect x="39" y="6.853" width="4" height="2"/>
		<rect x="51" y="6.853" width="4" height="2"/>
		<rect x="33" y="6.853" width="4" height="2"/>
		<rect x="27" y="6.853" width="4" height="2"/>
		<polygon points="24,8.854 25,8.854 25,6.853 22,6.853 22,9.854 24,9.854 		"/>
		<rect x="22" y="11.854" width="2" height="3"/>
		<polygon points="22,18.854 25,18.854 25,16.854 24,16.854 24,15.854 22,15.854 		"/>
		<rect x="27" y="16.854" width="4" height="2"/>
		<rect x="33" y="16.854" width="4" height="2"/>
		<rect x="39" y="16.854" width="4" height="2"/>
		<rect x="51" y="16.854" width="4" height="2"/>
		<rect x="45" y="16.854" width="4" height="2"/>
		<polygon points="57,18.854 60,18.854 60,15.854 58,15.854 58,16.854 57,16.854 		"/>
		<rect x="58" y="11.854" width="2" height="3"/>
		<polygon points="9.293,19.146 10.854,20.561 18,13.56 18,12.146 10.854,5.147 9.366,6.56 14.586,11.854 0,11.854 0,13.854 
			14.586,13.854 		"/>
	</g>
</g>
<g>
</g>
<g>
</g>
<g>
</g>
<g>
</g>
<g>
</g>
<g>
</g>
<g>
</g>
<g>
</g>
<g>
</g>
<g>
</g>
<g>
</g>
<g>
</g>
<g>
</g>
<g>
</g>
<g>
</g>
</svg>
