<?xml version="1.0" encoding="iso-8859-1"?>
<!-- Generator: Adobe Illustrator 19.1.0, SVG Export Plug-In . SVG Version: 6.00 Build 0)  -->
<svg version="1.1" id="Capa_1" xmlns="http://www.w3.org/2000/svg" xmlns:xlink="http://www.w3.org/1999/xlink" x="0px" y="0px"
	 viewBox="0 0 64 64" style="enable-background:new 0 0 64 64;" xml:space="preserve">
<g>
	<g>
		<rect x="22" y="5.146" width="42" height="2"/>
		<rect x="22" y="15.146" width="34" height="2"/>
		<rect x="22" y="25.146" width="42" height="2"/>
		<rect x="22" y="35.146" width="36" height="2"/>
		<polygon points="57,47.146 58,47.146 58,48.146 60,48.146 60,45.146 57,45.146 		"/>
		<rect x="39" y="45.146" width="4" height="2"/>
		<rect x="27" y="45.146" width="4" height="2"/>
		<rect x="45" y="45.146" width="4" height="2"/>
		<rect x="33" y="45.146" width="4" height="2"/>
		<rect x="51" y="45.146" width="4" height="2"/>
		<polygon points="24,47.146 25,47.146 25,45.146 22,45.146 22,48.146 24,48.146 		"/>
		<rect x="22" y="50.146" width="2" height="3"/>
		<polygon points="22,57.146 25,57.146 25,55.146 24,55.146 24,54.146 22,54.146 		"/>
		<rect x="51" y="55.146" width="4" height="2"/>
		<rect x="45" y="55.146" width="4" height="2"/>
		<rect x="39" y="55.146" width="4" height="2"/>
		<rect x="33" y="55.146" width="4" height="2"/>
		<rect x="27" y="55.146" width="4" height="2"/>
		<polygon points="58,55.146 57,55.146 57,57.146 60,57.146 60,54.146 58,54.146 		"/>
		<rect x="58" y="50.146" width="2" height="3"/>
		<polygon points="9.293,57.439 10.854,58.854 18,51.854 18,50.439 10.854,43.439 9.366,44.854 14.586,50.146 0,50.146 0,52.146 
			14.586,52.146 		"/>
	</g>
</g>
<g>
</g>
<g>
</g>
<g>
</g>
<g>
</g>
<g>
</g>
<g>
</g>
<g>
</g>
<g>
</g>
<g>
</g>
<g>
</g>
<g>
</g>
<g>
</g>
<g>
</g>
<g>
</g>
<g>
</g>
</svg>
