<?xml version="1.0" encoding="iso-8859-1"?>
<!-- Generator: Adobe Illustrator 19.1.0, SVG Export Plug-In . SVG Version: 6.00 Build 0)  -->
<svg version="1.1" id="Capa_1" xmlns="http://www.w3.org/2000/svg" xmlns:xlink="http://www.w3.org/1999/xlink" x="0px" y="0px"
	 viewBox="0 0 64.631 64.631" style="enable-background:new 0 0 64.631 64.631;" xml:space="preserve">
<g>
	<g>
		<path d="M9.51,43.707l-0.115,0.114L0,62.611l2.02,2.02l18.79-9.395l43.821-43.822L53.217,0L9.51,43.707z M11.631,44.414
			l32.586-32.586l8.586,8.586L20.217,53L11.631,44.414z M45.631,10.414l2.586-2.586l8.586,8.586L54.217,19L45.631,10.414z
			 M10.491,46.102l8.038,8.037l-7.644,3.822l-0.843-3.372l-3.373-0.844L10.491,46.102z M5.753,55.578l2.64,0.66l0.66,2.64
			l-6.599,3.3L5.753,55.578z M58.217,15l-8.586-8.586l3.586-3.586l8.586,8.586L58.217,15z"/>
	</g>
</g>
<g>
</g>
<g>
</g>
<g>
</g>
<g>
</g>
<g>
</g>
<g>
</g>
<g>
</g>
<g>
</g>
<g>
</g>
<g>
</g>
<g>
</g>
<g>
</g>
<g>
</g>
<g>
</g>
<g>
</g>
</svg>
