<?xml version="1.0" encoding="iso-8859-1"?>
<!-- Generator: Adobe Illustrator 19.1.0, SVG Export Plug-In . SVG Version: 6.00 Build 0)  -->
<svg version="1.1" id="Capa_1" xmlns="http://www.w3.org/2000/svg" xmlns:xlink="http://www.w3.org/1999/xlink" x="0px" y="0px"
	 viewBox="0 0 64 64" style="enable-background:new 0 0 64 64;" xml:space="preserve">
<g>
	<path d="M0,16.086v44.828L22.414,38.5L0,16.086z M2,20.914L19.586,38.5L2,56.086V20.914z"/>
	<path d="M64,56.5h-1.586l-0.121-0.121L62.172,56.5H62v0.172l-1.121,1.121L64,60.914V56.5z M62,39.5h2v4h-2V39.5z M62,45.5h2v3h-2
		V45.5z M62,33.5h2v4h-2V33.5z M62,50.5h2v4h-2V50.5z M62,28.5h2v3h-2V28.5z M62,22.5h2v4h-2V22.5z M64,16.086l-3.121,3.121
		L62,20.328V20.5h0.172l0.121,0.121l0.121-0.121H64V16.086z M51.633,28.453l1.414,1.414l-2.642,2.642l-1.414-1.414L51.633,28.453z
		 M59.557,20.528l1.414,1.414l-2.642,2.642l-1.414-1.414L59.557,20.528z M47.669,32.416l1.414,1.414l-2.642,2.642l-1.414-1.414
		L47.669,32.416z M54.367,28.547l-1.414-1.414l2.642-2.642l1.414,1.414L54.367,28.547z M41.586,38.5l2.121,2.121l1.414-1.414
		L44.414,38.5l0.707-0.707l-1.414-1.414L41.586,38.5z M57.01,51.095l-1.414,1.414l-2.642-2.642l1.414-1.414L57.01,51.095z
		 M60.972,55.058l-1.414,1.414l-2.642-2.642l1.414-1.414L60.972,55.058z M51.633,48.547l-2.642-2.642l1.414-1.414l2.642,2.642
		L51.633,48.547z M47.67,44.584l-2.642-2.642l1.414-1.414l2.642,2.642L47.67,44.584z"/>
	<rect x="31" y="60.5" width="2" height="2"/>
	<rect x="31" y="42.5" width="2" height="4"/>
	<rect x="31" y="30.5" width="2" height="4"/>
	<rect x="31" y="36.5" width="2" height="4"/>
	<rect x="31" y="48.5" width="2" height="4"/>
	<rect x="31" y="54.5" width="2" height="4"/>
	<rect x="31" y="18.5" width="2" height="4"/>
	<rect x="31" y="24.5" width="2" height="4"/>
	<rect x="31" y="14.5" width="2" height="2"/>
	<path d="M56,11.651C50.245,5.088,41.839,1.5,32,1.5c-10.925,0-20.093,4.41-25.813,12.419l1.627,1.162
		C13.149,7.613,21.738,3.5,32,3.5c9.509,0,17.577,3.538,22.957,10H46v2h11l1-1v-11h-2V11.651z"/>
</g>
<g>
</g>
<g>
</g>
<g>
</g>
<g>
</g>
<g>
</g>
<g>
</g>
<g>
</g>
<g>
</g>
<g>
</g>
<g>
</g>
<g>
</g>
<g>
</g>
<g>
</g>
<g>
</g>
<g>
</g>
</svg>
