<?xml version="1.0" encoding="iso-8859-1"?>
<!-- Generator: Adobe Illustrator 19.1.0, SVG Export Plug-In . SVG Version: 6.00 Build 0)  -->
<svg version="1.1" id="Capa_1" xmlns="http://www.w3.org/2000/svg" xmlns:xlink="http://www.w3.org/1999/xlink" x="0px" y="0px"
	 viewBox="0 0 64 64" style="enable-background:new 0 0 64 64;" xml:space="preserve">
<g>
	<g>
		<path d="M25,22.414L47.414,0H2.586L25,22.414z M25,19.586L7.414,2h35.172L25,19.586z"/>
		<path d="M7,62.414l0.121-0.121L7,62.172V62H6.828l-1.121-1.121L2.586,64H7V62.414z M20,62h4v2h-4V62z M32,62h3v2h-3V62z M37,62h4
			v2h-4V62z M15,62h3v2h-3V62z M9,62h4v2H9V62z M26,62h4v2h-4V62z M43.172,62H43v0.172l-0.121,0.121L43,62.414V64h4.414
			l-3.121-3.121L43.172,62z M36.367,52.953l2.642,2.642l-1.414,1.414l-2.642-2.642L36.367,52.953z M40.33,56.916l2.642,2.642
			l-1.414,1.414l-2.642-2.642L40.33,56.916z M28.442,45.028l2.642,2.642l-1.414,1.414l-2.642-2.642L28.442,45.028z M32.404,48.99
			l2.642,2.642l-1.414,1.414l-2.642-2.642L32.404,48.99z M24.293,45.121L25,44.414l0.707,0.707l1.414-1.414L25,41.586l-2.121,2.121
			L24.293,45.121z M21.557,45.029l1.414,1.414l-2.642,2.642l-1.414-1.414L21.557,45.029z M10.99,55.596l2.642-2.642l1.414,1.414
			l-2.642,2.642L10.99,55.596z M8.442,60.972l-1.414-1.414l2.642-2.642l1.414,1.414L8.442,60.972z M14.952,51.633l2.642-2.642
			l1.414,1.414l-2.642,2.642L14.952,51.633z"/>
		<rect x="1" y="30.5" width="2" height="2"/>
		<rect x="5" y="31" width="4" height="2"/>
		<rect x="23" y="31" width="4" height="2"/>
		<rect x="29" y="31" width="4" height="2"/>
		<rect x="35" y="31" width="4" height="2"/>
		<rect x="17" y="31" width="4" height="2"/>
		<rect x="41" y="31" width="4" height="2"/>
		<rect x="11" y="31" width="4" height="2"/>
		<rect x="47" y="30.5" width="2" height="2"/>
		<path d="M50.581,6.187l-1.162,1.627C56.887,13.149,61,21.738,61,32c0,9.509-3.538,17.577-10,22.957V46h-2v11l1,1h11v-2h-8.151
			C59.412,50.245,63,41.839,63,32C63,21.075,58.59,11.907,50.581,6.187z"/>
	</g>
</g>
<g>
</g>
<g>
</g>
<g>
</g>
<g>
</g>
<g>
</g>
<g>
</g>
<g>
</g>
<g>
</g>
<g>
</g>
<g>
</g>
<g>
</g>
<g>
</g>
<g>
</g>
<g>
</g>
<g>
</g>
</svg>
