<?xml version="1.0" encoding="iso-8859-1"?>
<!-- Generator: Adobe Illustrator 19.1.0, SVG Export Plug-In . SVG Version: 6.00 Build 0)  -->
<svg version="1.1" id="Capa_1" xmlns="http://www.w3.org/2000/svg" xmlns:xlink="http://www.w3.org/1999/xlink" x="0px" y="0px"
	 viewBox="0 0 63 63" style="enable-background:new 0 0 63 63;" xml:space="preserve">
<g>
	<g>
		<path d="M42.143,0L33.91,23.672l1.889,0.656L38,18h10.709l2.201,6.328l1.889-0.656L44.564,0H42.143z M38.694,16l4.659-13.394
			L48.013,16H38.694z"/>
		<rect x="25.854" y="27" width="34" height="2"/>
		<path d="M48.708,51l2.201,6.328l1.889-0.656L44.564,33h-2.422L33.91,56.672l1.889,0.656L38,51H48.708z M43.354,35.606L48.013,49
			h-9.318L43.354,35.606z"/>
		<rect x="25.854" y="60" width="34" height="2"/>
		<polygon points="17.146,34.707 18.561,33.146 11.56,26 10.146,26 3.147,33.146 4.56,34.634 9.854,29.414 9.854,59.586 
			4.56,54.293 3.147,55.854 10.146,63 11.56,63 18.561,55.854 17.146,54.366 11.854,59.586 11.854,29.414 		"/>
	</g>
</g>
<g>
</g>
<g>
</g>
<g>
</g>
<g>
</g>
<g>
</g>
<g>
</g>
<g>
</g>
<g>
</g>
<g>
</g>
<g>
</g>
<g>
</g>
<g>
</g>
<g>
</g>
<g>
</g>
<g>
</g>
</svg>
