<?xml version="1.0" encoding="iso-8859-1"?>
<!-- Generator: Adobe Illustrator 19.1.0, SVG Export Plug-In . SVG Version: 6.00 Build 0)  -->
<svg version="1.1" id="Capa_1" xmlns="http://www.w3.org/2000/svg" xmlns:xlink="http://www.w3.org/1999/xlink" x="0px" y="0px"
	 viewBox="0 0 64 64" style="enable-background:new 0 0 64 64;" xml:space="preserve">
<g>
	<g>
		<path d="M53.296,30.146l4.763,13.336l1.883-0.672L44.705,0.146h-2.41L27.059,42.811l1.883,0.672l4.762-13.336H53.296z M43.5,2.719
			l9.081,25.427H34.419L43.5,2.719z"/>
		<path d="M18.854,37.146l2.201,6.328l1.889-0.656l-8.233-23.672h-2.422L4.056,42.819l1.889,0.656l2.201-6.328H18.854z M13.5,21.753
			l4.659,13.394H8.841L13.5,21.753z"/>
		<polygon points="56.854,63.854 64,56.854 64,55.439 56.854,48.439 55.366,49.854 60.586,55.146 3.414,55.146 8.707,49.854 
			7.146,48.439 0,55.439 0,56.854 7.146,63.854 8.634,62.439 3.414,57.146 60.586,57.146 55.366,62.439 		"/>
	</g>
</g>
<g>
</g>
<g>
</g>
<g>
</g>
<g>
</g>
<g>
</g>
<g>
</g>
<g>
</g>
<g>
</g>
<g>
</g>
<g>
</g>
<g>
</g>
<g>
</g>
<g>
</g>
<g>
</g>
<g>
</g>
</svg>
