<?xml version="1.0" encoding="iso-8859-1"?>
<!-- Generator: Adobe Illustrator 19.1.0, SVG Export Plug-In . SVG Version: 6.00 Build 0)  -->
<svg version="1.1" id="Capa_1" xmlns="http://www.w3.org/2000/svg" xmlns:xlink="http://www.w3.org/1999/xlink" x="0px" y="0px"
	 viewBox="0 0 63.598 63.598" style="enable-background:new 0 0 63.598 63.598;" xml:space="preserve">
<path d="M17.056,57.799h1.743v2h-2.907l-1.275-2.246l1.74-0.987L17.056,57.799z M4.033,34.854l-1.739,0.987l2.054,3.619l1.739-0.987
	L4.033,34.854z M10.196,45.711l-1.739,0.987l2.054,3.619l1.739-0.987L10.196,45.711z M13.276,51.139l-1.739,0.987l2.054,3.619
	l1.739-0.987L13.276,51.139z M7.115,40.284l-1.739,0.987l2.054,3.618l1.739-0.987L7.115,40.284z M2.299,31.799l0.708-1.246
	l-1.74-0.987L0,31.799l1.267,2.233l1.74-0.987L2.299,31.799z M9.168,19.695l-1.739-0.987l-2.054,3.618l1.739,0.987L9.168,19.695z
	 M15.329,8.84L13.59,7.852l-2.054,3.618l1.739,0.987L15.329,8.84z M6.087,25.123l-1.739-0.987l-2.054,3.618l1.739,0.987
	L6.087,25.123z M12.249,14.269l-1.739-0.987L8.455,16.9l1.739,0.987L12.249,14.269z M14.617,6.045l1.74,0.987l0.699-1.233h1.743v-2
	h-2.907L14.617,6.045z M26.799,5.799h4v-2h-4V5.799z M32.799,5.799h4v-2h-4V5.799z M20.799,5.799h4v-2h-4V5.799z M38.799,5.799h4v-2
	h-4V5.799z M47.241,7.032l1.74-0.987l-1.275-2.246h-2.907v2h1.743L47.241,7.032z M56.482,23.317l1.739-0.987l-2.054-3.618
	l-1.739,0.987L56.482,23.317z M50.321,12.46l1.739-0.987l-2.054-3.619l-1.739,0.987L50.321,12.46z M53.402,17.889l1.739-0.987
	l-2.054-3.619l-1.739,0.987L53.402,17.889z M59.564,28.744l1.739-0.987l-2.054-3.619l-1.739,0.987L59.564,28.744z M62.331,29.566
	l-1.74,0.987l0.708,1.246l-0.708,1.246l1.74,0.987l1.267-2.233L62.331,29.566z M48.263,54.751l1.739,0.987l2.054-3.618l-1.739-0.987
	L48.263,54.751z M51.353,49.334l1.739,0.987l2.054-3.618l-1.739-0.987L51.353,49.334z M54.435,43.905l1.739,0.987l2.054-3.618
	l-1.739-0.987L54.435,43.905z M57.516,38.477l1.739,0.987l2.054-3.618l-1.739-0.987L57.516,38.477z M46.542,57.799h-1.743v2h2.907
	l1.275-2.246l-1.74-0.987L46.542,57.799z M38.799,59.799h4v-2h-4V59.799z M26.799,59.799h4v-2h-4V59.799z M32.799,59.799h4v-2h-4
	V59.799z M20.799,59.799h4v-2h-4V59.799z"/>
<g>
</g>
<g>
</g>
<g>
</g>
<g>
</g>
<g>
</g>
<g>
</g>
<g>
</g>
<g>
</g>
<g>
</g>
<g>
</g>
<g>
</g>
<g>
</g>
<g>
</g>
<g>
</g>
<g>
</g>
</svg>
