<?xml version="1.0" encoding="iso-8859-1"?>
<!-- Generator: Adobe Illustrator 19.0.0, SVG Export Plug-In . SVG Version: 6.00 Build 0)  -->
<svg version="1.1" id="Layer_1" xmlns="http://www.w3.org/2000/svg" xmlns:xlink="http://www.w3.org/1999/xlink" x="0px" y="0px"
	 viewBox="0 0 512 512" style="enable-background:new 0 0 512 512;" xml:space="preserve">
<g transform="translate(1 1)">
	<g>
		<g>
			<path d="M280.6,195.267H383c5.12,0,8.533-3.413,8.533-8.533v-51.2c0-5.12-3.413-8.533-8.533-8.533H280.6
				c-5.12,0-8.533,3.413-8.533,8.533v51.2C272.067,191.853,275.48,195.267,280.6,195.267z M289.133,144.067h85.333V178.2h-85.333
				V144.067z"/>
			<path d="M485.4,84.333h-68.267h-17.067V16.067C400.067,6.68,392.387-1,383-1H127c-9.387,0-17.067,7.68-17.067,17.067v68.267
				H92.867H24.6c-14.507,0-25.6,11.093-25.6,25.6v187.733v102.4c0,14.507,11.093,25.6,25.6,25.6h57.99L69.827,490.52
				c-0.853,5.12,0.853,11.093,3.413,14.507C75.8,508.44,80.92,511,86.04,511h337.92c5.12,0,9.387-2.56,13.653-5.973
				c3.413-4.267,4.267-9.387,3.413-14.507l-13.109-64.853H485.4c14.507,0,25.6-11.093,25.6-25.6v-102.4V109.933
				C511,95.427,499.907,84.333,485.4,84.333z M127,16.067h256v68.267H127V16.067z M118.467,101.4h273.067H408.6v85.333
				c0,14.507-11.093,25.6-25.6,25.6H127c-14.507,0-25.6-11.093-25.6-25.6V101.4H118.467z M24.6,101.4h59.733v85.333
				c0,23.893,18.773,42.667,42.667,42.667h256c23.893,0,42.667-18.773,42.667-42.667V101.4H485.4c5.12,0,8.533,3.413,8.533,8.533
				v179.2H16.067v-179.2C16.067,104.813,19.48,101.4,24.6,101.4z M86.04,493.933l14.549-72.747c0.362-0.71,0.64-1.493,0.811-2.347
				l15.36-78.507h276.48l15.36,78.507c0.171,0.854,0.448,1.636,0.811,2.347l14.549,72.747H86.04z M493.933,400.067
				c0,5.12-3.413,8.533-8.533,8.533h-60.932L408.6,330.093c-0.853-4.267-4.267-6.827-8.533-6.827H109.933
				c-4.267,0-7.68,2.56-8.533,6.827L85.949,408.6H24.6c-5.12,0-8.533-3.413-8.533-8.533V306.2h477.867V400.067z"/>
			<path d="M186.733,383h136.533c5.12,0,8.533-3.413,8.533-8.533s-3.413-8.533-8.533-8.533H186.733c-5.12,0-8.533,3.413-8.533,8.533
				S181.613,383,186.733,383z"/>
			<path d="M161.133,425.667h187.733c5.12,0,8.533-3.413,8.533-8.533s-3.413-8.533-8.533-8.533H161.133
				c-5.12,0-8.533,3.413-8.533,8.533S156.013,425.667,161.133,425.667z"/>
			<path d="M374.467,451.267H135.533c-5.12,0-8.533,3.413-8.533,8.533c0,5.12,3.413,8.533,8.533,8.533h238.933
				c5.12,0,8.533-3.413,8.533-8.533C383,454.68,379.587,451.267,374.467,451.267z"/>
		</g>
	</g>
</g>
<g>
</g>
<g>
</g>
<g>
</g>
<g>
</g>
<g>
</g>
<g>
</g>
<g>
</g>
<g>
</g>
<g>
</g>
<g>
</g>
<g>
</g>
<g>
</g>
<g>
</g>
<g>
</g>
<g>
</g>
</svg>
